<?xml version="1.0" encoding="utf-8"?>
<!-- Generator: Adobe Illustrator 26.0.3, SVG Export Plug-In . SVG Version: 6.00 Build 0)  -->
<svg version="1.0" id="katman_1" xmlns="http://www.w3.org/2000/svg" xmlns:xlink="http://www.w3.org/1999/xlink" x="0px" y="0px"
	 viewBox="0 0 600 450" style="enable-background:new 0 0 600 450;" xml:space="preserve">
<style type="text/css">
	
		.st0{clip-path:url(#SVGID_00000086673495978549139200000012917274312027088794_);fill-rule:evenodd;clip-rule:evenodd;fill:#0C0C0E;}
	.st1{fill-rule:evenodd;clip-rule:evenodd;fill:#AF27CC;}
	.st2{fill-rule:evenodd;clip-rule:evenodd;fill:#FF3B4A;}
	.st3{fill-rule:evenodd;clip-rule:evenodd;fill:#FFDA12;}
	.st4{fill-rule:evenodd;clip-rule:evenodd;fill:#87C966;}
	.st5{fill-rule:evenodd;clip-rule:evenodd;fill:#65CEE7;}
	.st6{fill-rule:evenodd;clip-rule:evenodd;fill:#4BA2EA;}
</style>
<g>
	<g>
		<defs>
			<rect id="SVGID_1_" x="135.3" y="64" width="329.5" height="322"/>
		</defs>
		<clipPath id="SVGID_00000133489576444737305950000007161995740365209775_">
			<use xlink:href="#SVGID_1_"  style="overflow:visible;"/>
		</clipPath>
		
			<path style="clip-path:url(#SVGID_00000133489576444737305950000007161995740365209775_);fill-rule:evenodd;clip-rule:evenodd;fill:#0C0C0E;" d="
			M341.6,347.4c2.3,2.7,3.5,6.1,3.5,10.3c0,4.4-1.3,8-4,10.7c-2.6,2.8-5.9,4.2-9.9,4.2c-4,0-7.3-1.4-9.9-4.2
			c-2.3-2.5-3.7-5.7-3.8-9.6c0,0-0.9-6.8,3.8-11.9c2.6-2.8,5.9-4.2,10-4.2C331.3,342.9,337.5,342.5,341.6,347.4L341.6,347.4z
			 M441.9,318.2c0.8,0,1.5,0.6,1.6,1.4v12.5h14.7c0.9,0,1.6,0.7,1.6,1.5v8.7c0,0.8-0.6,1.4-1.4,1.5h-14.9v19.1
			c0,3.6,0.6,6.1,1.9,7.7c1.3,1.5,3.3,2.3,6.3,2.3c2.6,0,4.9-0.4,7.2-1.2c0.1-0.1,0.3-0.1,0.4-0.2c0.2-0.1,0.3-0.1,0.5-0.1
			c0.8,0,1.4,0.5,1.5,1.3l1.1,8.6v0.2c0,0.1,0,0.1-0.1,0.2c-0.1,0.6-0.5,1.2-1,1.3c-1.6,0.7-3.3,1.2-5,1.6c-2.5,0.5-5.2,0.8-7.9,0.8
			c-6.4,0-11.3-1.7-14.4-5c-3.2-3.3-4.7-8.4-4.7-15.1v-21.7h-8.9c-0.7-0.1-1.3-0.7-1.3-1.5v-8.5c0-0.9,0.7-1.6,1.6-1.6h8.6v-12.5
			c0.1-0.8,0.8-1.5,1.6-1.5H441.9z M172.5,304.9c4.6-0.4,9.3-0.1,13.8,0.9c4.2,1,8.3,2.6,12.1,4.8c3.5,2.1,6.6,4.7,9.3,7.8
			c2.8,3.4,5.3,7.2,6.9,11.3c1.8,4.5,2.7,9.3,2.8,14.1c0.1,4.5-0.5,8.9-1.9,13.2c-0.7,2-1.5,4-2.5,6c-0.5,1-1.1,1.9-1.6,2.8
			c-0.5,0.8-1.3,1.7-1.2,2.7c0.1,0.5,0.3,0.9,0.5,1.2l4.7,8.4c0.7,1.4,1.5,2.7,2.2,4.2c0.7,1.2-0.3,2.7-1.7,2.7h-11.7
			c-0.6,0-1.3,0.1-1.9-0.3c-0.7-0.4-1.2-1.6-1.5-2.4l-7.6-15c-0.2-0.4-0.2-0.9-0.1-1.3c0.2-0.5,0.5-0.9,1-1.2
			c2.9-2.6,5.3-5.8,6.8-9.4c1.7-3.7,2.4-7.8,2.1-11.9c-0.3-4.6-1.7-9-4.2-12.8c-2.1-3.2-4.9-6-8.1-8.1c-3.6-2.3-7.7-3.6-12-4.1
			c-4.7-0.5-9.5,0.4-13.8,2.4c-4.1,1.9-7.6,4.8-10.2,8.4c-2.7,3.6-4.5,8-5,12.5c-0.5,4.6,0.1,9.3,2,13.6c1.8,4.2,4.7,7.9,8.3,10.6
			c3.7,2.9,8.1,4.6,12.7,5.2c2.4,0.4,4.9,0.4,7.3,0c0.6-0.1,1.3-0.2,1.8-0.3c0.4-0.1,0.9-0.3,1.4-0.1c0.5,0.2,0.9,0.6,1.2,1.1
			c0.9,1.8,1.8,3.5,2.7,5.2c0.5,1,1,1.9,1.4,2.8c0.4,0.8,0.9,1.5,0.5,2.4c-0.5,1.1-1.5,1.2-2.5,1.5c-1.2,0.3-2.4,0.5-3.6,0.7
			c-2.2,0.3-4.4,0.4-6.6,0.5c-2.3,0.1-4.6-0.1-6.9-0.4c-2.4-0.4-4.8-0.9-7.1-1.6c-4.2-1.3-8.2-3.4-11.7-6c-3.6-2.7-6.7-6-9.1-9.9
			c-2.4-3.8-4.3-8.2-5.3-12.6c-1-4.6-1.2-9.3-0.8-13.9c0.4-4.7,1.7-9.3,3.8-13.5c2-4.2,4.8-8.1,8.1-11.3c3.4-3.2,7.3-5.9,11.6-7.7
			C163.2,306.3,167.9,305.2,172.5,304.9L172.5,304.9z M328.2,330.3c3.6,0,6.8,0.8,9.7,2.2c2.9,1.4,5.2,3.5,6.9,6.1l0.2-5.5V333
			c0.1-0.8,0.7-1.3,1.5-1.3H357c0.9,0,1.6,0.7,1.6,1.6v48.6c0,0.9-0.7,1.6-1.6,1.6h-10.6c-0.7,0-1.4-0.6-1.5-1.3l-0.2-5.2
			c-3.1,5.1-8.7,6.8-8.7,6.8c-2.5,1-5.4,1.4-8.6,1.4c-4.6,0-8.7-1.2-12.4-3.4c-3.7-2.2-6.5-5.4-8.7-9.6c-2-3.9-3.1-8.3-3.1-13.3
			v-1.1c0-5,1.1-9.6,3.1-13.8c2-4.2,5-7.4,8.8-10C319.1,331.5,323.4,330.3,328.2,330.3L328.2,330.3z M397.6,330.4
			c6.1,0,10.8,1.9,14.1,5.7c3.2,3.8,4.8,9.2,4.8,16.3v29.8c0,0.9-0.7,1.6-1.6,1.6h-11.2c-0.7,0-1.3-0.4-1.5-1.1V355
			c0-8.1-3.1-12.1-9.3-12.1c-3.4,0-6.1,1.1-8,3.4c-1.9,2.2-2.9,5.4-2.9,9.6v26.8c-0.3,0.6-0.8,1.1-1.5,1.1h-11.2
			c-0.9,0-1.6-0.7-1.6-1.6v-48.6c0-0.9,0.7-1.6,1.6-1.6h10.6c0.8,0,1.4,0.5,1.5,1.3l0.4,5.1c1.4-2.6,3.6-4.5,6.3-6
			C390.8,331.1,394,330.4,397.6,330.4L397.6,330.4z M267.2,331.8c0.6,0,1.2,0.3,1.4,0.9l11.2,34.8l9.4-34.4c0.2-0.6,0.8-1.1,1.5-1.1
			H302c0.9,0,1.6,0.7,1.6,1.6c0,0.2,0,0.3-0.1,0.4l-16.4,48.8c-0.3,0.6-0.8,0.9-1.4,0.9H275c-0.6,0-1.2-0.3-1.4-0.9l-11.4-33.2
			l-11,33.3c-0.3,0.5-0.8,0.8-1.3,0.8h-10.5c-0.6,0-1.2-0.4-1.4-1l-16.4-49.3c0-0.9,0.7-1.6,1.6-1.6h11.6c0.5,0.1,1.1,0.4,1.3,0.9
			l9.3,34.5l10.7-34.5c0.3-0.5,0.8-1,1.4-1H267.2z M267.2,331.8"/>
	</g>
	<path class="st1" d="M323.1,258c-2.9,0.7-5.8,1.3-8.7,1.7c-5.3,0.8-10.7,1.1-16.1,1.4c-5.6,0.2-11.2-0.3-16.8-1
		c-5.8-0.8-11.6-2.1-17.3-4c-10.3-3.3-20-8.3-28.6-14.8c-2.7-2.1-5.4-4.3-7.9-6.7c-5.5-5.2-10.3-11-14.3-17.3
		c-6-9.5-10.5-20-12.9-30.9c-2.5-11.1-3-23.4-1.9-34.8l0-0.3c1.1,16.2,6.5,31.7,15.4,44.1c14.8,20.7,37.9,33.8,63.3,35.8
		c2.3,0.2,4.6,0.3,7,0.3c10.3,0,20.6-1.8,30.3-5.4c0.1,0,0.3,0.1,0.5,0.1c1.3,0.4,2.2,1.3,2.8,2.5c2.2,4.3,4.3,8.6,6.5,12.8
		c0.1,0.1,0.1,0.3,0.2,0.4c1.1,2.2,2.2,4.4,3.3,6.6c0.9,1.8,2,3.6,1.3,5.8C328.2,257,325.5,257.4,323.1,258L323.1,258z M323.1,258"
		/>
	<path class="st2" d="M198.7,151.3c0,9.5,7.6,17.2,17,17.5c8.7,0.3,16.2-5.8,17.8-14.3c0,0.2-0.1,0.5-0.1,0.8
		c-1.3,11.2,0.3,22.8,4.8,33.2c4.4,10.3,11.4,19.2,20.3,26c9,6.8,19.7,11.3,30.8,12.8c7.3,1,14.8,0.7,22-0.8
		c1.1-0.2,2.1-0.5,3.1-0.3c-9.7,3.6-19.9,5.5-30.3,5.4c-2.3,0-4.6-0.1-6.9-0.3c-25.3-2-48.5-15.1-63.3-35.8
		C205.2,183,199.8,167.5,198.7,151.3"/>
	<path class="st3" d="M297.9,64c-3,0-6,0.1-9.1,0.4c-11.4,0.9-22.7,3.6-33.2,8.3c-10.4,4.7-19.9,11.1-28.1,19
		c-8.2,7.9-15,17.3-19.9,27.6c-4.5,9.4-7.5,19.5-8.8,29.9h0c-0.1,0.7-0.1,1.5-0.1,2.2c0,9.5,7.6,17.2,17,17.5
		c8.7,0.3,16.2-5.8,17.8-14.3v0c0.1-0.5,0.1-1,0.2-1.5c0,0,0,0,0,0l0.2-0.9c0.4-8.8,2.2-17.5,5.3-25.8
		c12.2-32.5,43.3-55.6,79.9-55.6c1.7,0,3.5,0.1,5.2,0.2c5.9,0.4,11.6,1.3,17.1,2.8h0c1.2,0.2,2.3,0.5,3.4,0.9
		c-7.2-3.5-14.7-6.2-22.5-7.9c-4.5-1-9.1-1.7-13.8-2.1c-3.4-0.3-6.9-0.5-10.3-0.5H297.9z M297.9,64"/>
	<path class="st4" d="M356,90.9c0,2.2-0.4,4.4-1.2,6.5c-2.7,6.7-9.1,11-16.3,11c-2.9,0-5.8-0.7-8.4-2.1h0c-8.1-4.5-17-7.3-26.3-8.1
		c-11.5-1.1-23.1,1.1-33.5,6c-5.1,2.4-9.8,5.4-14.1,9c-4,3.4-7.6,7.2-10.7,11.4c-6,8.1-9.9,17.6-11.6,27.5
		c0.4-8.8,2.2-17.5,5.3-25.8c12.2-32.5,43.3-55.6,79.9-55.6c1.7,0,3.5,0.1,5.2,0.2c5.9,0.4,11.6,1.3,17.1,2.8h0
		c1.3,0.3,2.5,0.7,3.8,1.1c1,0.5,1.9,1,2.8,1.4c0,0,0,0,0,0C353,79.4,356,84.9,356,90.9"/>
	<path class="st5" d="M393.7,192c-1.6,5-3.6,9.9-6,14.7c-0.5,1-1,1.9-1.5,2.9c-0.7,1.3-1.5,2.7-2.3,4c-0.9,1.4-2.3,3-2.8,4.6
		l0.1-0.2c0.5-1.3,1-2.6,1.4-4c2.8-8.6,4.1-17.5,4.1-26.5c0-19.1-6.2-36.8-16.8-51.2c-9.8-13.3-23.3-23.6-38.8-29.5
		c-0.3-0.2-0.6-0.4-0.9-0.5h0c2.6,1.4,5.4,2.1,8.4,2.1c7.2,0,13.6-4.4,16.3-11c0.8-2.1,1.2-4.3,1.2-6.5c0-5.9-3-11.4-8-14.7
		c1.3,0.7,2.5,1.4,3.7,2.1c8.5,5.1,16.2,11.5,22.7,19c7.1,8.2,12.9,17.6,16.8,27.6c4.3,11,6.5,22.8,6.7,34.6
		C398.4,170.5,397,181.5,393.7,192"/>
	<path class="st6" d="M357.6,254.5c1,1.9,1.9,4.7,3.8,5.8c1.4,0.8,3.1,0.6,4.6,0.6h28.5c3.4-0.1,5.8-3.7,4.2-6.8
		c-1.8-3.4-3.6-6.8-5.4-10.2l-11-20.7c-0.5-1-1.2-2-1.4-3c0,0-0.4-0.6,0.1-2.4c0.5-1.3,1-2.6,1.4-4c2.8-8.6,4.1-17.5,4.1-26.5
		c0-19.1-6.2-36.8-16.8-51.2c-9.8-13.3-23.3-23.6-38.8-29.5c0.7,0.4,1.4,0.8,2,1.2c8,5.1,14.7,11.8,19.8,19.8
		c6,9.4,9.5,20.2,10.1,31.3c0.6,10-1.2,20.1-5.1,29.2c-1.4,3.2-3.1,6.4-5,9.3c-3.2,5.1-7.2,9.7-11.7,13.7c-1,0.9-2,1.7-2.5,3
		c-0.4,1.1-0.3,2.3,0.2,3.4L357.6,254.5z M357.6,254.5"/>
</g>
</svg>
