<?xml version="1.0" encoding="UTF-8" standalone="no"?>
<svg
   xmlns:dc="http://purl.org/dc/elements/1.1/"
   xmlns:cc="http://creativecommons.org/ns#"
   xmlns:rdf="http://www.w3.org/1999/02/22-rdf-syntax-ns#"
   xmlns:svg="http://www.w3.org/2000/svg"
   xmlns="http://www.w3.org/2000/svg"
   xmlns:sodipodi="http://sodipodi.sourceforge.net/DTD/sodipodi-0.dtd"
   xmlns:inkscape="http://www.inkscape.org/namespaces/inkscape"
   width="1000"
   height="223.88077"
   viewBox="0 0 1000 223.88077"
   version="1.1"
   id="svg29"
   sodipodi:docname="startpage-logo_revised.svg"
   style="fill:none"
   inkscape:version="0.92.4 (5da689c313, 2019-01-14)">
  <metadata
     id="metadata33">
    <rdf:RDF>
      <cc:Work
         rdf:about="">
        <dc:format>image/svg+xml</dc:format>
        <dc:type
           rdf:resource="http://purl.org/dc/dcmitype/StillImage" />
        <dc:title></dc:title>
      </cc:Work>
    </rdf:RDF>
  </metadata>
  <sodipodi:namedview
     pagecolor="#ffffff"
     bordercolor="#666666"
     borderopacity="1"
     objecttolerance="10"
     gridtolerance="10"
     guidetolerance="10"
     inkscape:pageopacity="0"
     inkscape:pageshadow="2"
     inkscape:window-width="1920"
     inkscape:window-height="1017"
     id="namedview31"
     showgrid="false"
     fit-margin-top="0"
     fit-margin-left="0"
     fit-margin-right="0"
     fit-margin-bottom="0"
     inkscape:zoom="0.56262583"
     inkscape:cx="605.54734"
     inkscape:cy="-235.94557"
     inkscape:window-x="1912"
     inkscape:window-y="-8"
     inkscape:window-maximized="1"
     inkscape:current-layer="svg29" />
  <g
     clip-path="url(#clip0)"
     id="g22"
     transform="scale(9.6153846)">
    <path
       d="M 0.470098,20.8413 C 0.722263,20.4794 1.13653,20.2442 1.6949,20.1538 c 15.7423,-2.5871 31.7007,-2.6052 47.443,-0.0724 0.4323,0.0724 0.7025,0.199 0.8466,0.3438 0.1261,0.1266 0.1801,0.2894 0.1441,0.5246 -0.0361,0.199 -0.1261,0.3257 -0.2702,0.398 -0.1801,0.0905 -0.4683,0.1267 -0.9006,0.0724 C 33.3596,19.5206 17.6533,20.1357 2.27128,23.2655 2.12718,23.2836 1.98309,23.3017 1.85701,23.3017 H 1.73092 C 1.35268,23.2836 1.0825,23.157 0.920393,23.0484 0.560157,22.8132 0.326004,22.4333 0.235945,21.9991 0.18191,21.5649 0.253957,21.1488 0.470098,20.8413 Z"
       id="path2"
       inkscape:connector-curvature="0"
       style="clip-rule:evenodd;fill:#6573ff;fill-rule:evenodd" />
    <path
       d="M 11.4375,8.53912 C 10.9692,8.1773 10.3748,7.85165 9.6363,7.56219 8.91583,7.27273 8.05126,7.03754 7.06062,6.82044 6.21406,6.62144 5.54763,6.44052 5.06131,6.24152 4.57499,6.06061 4.23277,5.84351 4.01663,5.60832 3.80048,5.37313 3.71043,5.08367 3.71043,4.73994 3.71043,4.10674 3.9806,3.61827 4.52096,3.25644 5.06131,2.89462 5.78178,2.7137 6.68237,2.7137 c 0.81053,0 1.58503,0.12664 2.35954,0.39801 0.77451,0.27137 1.51299,0.68748 2.23349,1.23022 l 1.1167,-2.5147 C 11.9778,1.44731 11.4555,1.10357 10.8611,0.850294 10.2487,0.578924 9.58226,0.379919 8.86179,0.217096 8.14132,0.0723654 7.40284,0 6.64635,0 5.38552,0 4.2868,0.217096 3.33218,0.651289 2.39557,1.08548 1.65708,1.6825 1.11673,2.42424 0.594388,3.18408 0.324212,4.01628 0.324212,4.95703 c 0,0.65129 0.108071,1.23022 0.3062,1.73677 0.216141,0.50656 0.540358,0.94075 0.990648,1.30258 0.45029,0.37992 1.04468,0.70556 1.76515,0.97694 0.72047,0.28946 1.60305,0.52464 2.62972,0.74174 0.81053,0.18092 1.47697,0.36184 1.96329,0.54274 0.48631,0.1809 0.84655,0.3799 1.06269,0.6332 0.21614,0.2352 0.34222,0.5246 0.34222,0.8684 0,0.5789 -0.27017,1.0312 -0.81053,1.3568 -0.54035,0.3257 -1.31485,0.4885 -2.32351,0.4885 -0.93662,0 -1.81919,-0.1266 -2.66575,-0.398 C 2.73779,12.9353 1.92726,12.5192 1.13474,11.9765 L 0,14.4912 c 0.486318,0.3799 1.06269,0.7236 1.72913,0.995 0.66644,0.2714 1.38691,0.4885 2.1434,0.6332 0.7565,0.1447 1.54901,0.2171 2.34153,0.2171 1.38691,0 2.55767,-0.199 3.54832,-0.597 0.97262,-0.398 1.72912,-0.9589 2.25152,-1.6825 0.5223,-0.7237 0.7745,-1.5921 0.7745,-2.5871 0,-0.6332 -0.1081,-1.1759 -0.3423,-1.66438 C 12.248,9.33514 11.9058,8.90095 11.4375,8.53912 Z"
       id="path4"
       inkscape:connector-curvature="0"
       style="fill:#202945" />
    <path
       d="M 17.7432,1.03113 14.375,2.1347 v 2.65943 2.53279 4.46858 c 0,1.4111 0.3602,2.5328 1.0987,3.3288 0.7385,0.796 1.8012,1.194 3.1881,1.194 0.3602,0 0.6844,-0.0181 1.0087,-0.0723 0.3062,-0.0362 0.6304,-0.1267 0.9366,-0.2533 v -2.5871 c -0.2162,0.0362 -0.4143,0.0724 -0.5944,0.1086 -0.1621,0.0181 -0.3422,0.0361 -0.5224,0.0361 -0.3062,0 -0.5943,-0.0542 -0.8645,-0.1628 C 18.3556,13.279 18.1395,13.08 17.9774,12.8086 17.8152,12.5372 17.7252,12.1754 17.7252,11.7412 V 7.30883 h 2.8819 V 4.77604 H 17.7252 V 1.03113 Z"
       id="path6"
       inkscape:connector-curvature="0"
       style="fill:#202945" />
    <path
       d="M 30.4039,6.38614 C 30.1337,5.89767 29.7554,5.49966 29.2511,5.17402 28.5486,4.72174 27.7561,4.50464 26.8375,4.50464 c -0.9726,0 -1.8372,0.25328 -2.5937,0.74174 -0.7565,0.50656 -1.3328,1.19403 -1.7651,2.0986 -0.4323,0.90457 -0.6304,1.93578 -0.6304,3.12982 0,1.1759 0.2161,2.2071 0.6304,3.0936 0.4143,0.8865 1.0086,1.5559 1.7651,2.0443 0.7565,0.4704 1.6211,0.7237 2.6117,0.7237 0.9006,0 1.7112,-0.2171 2.4136,-0.6513 0.5044,-0.3076 0.8826,-0.7237 1.1528,-1.2121 v 1.6825 H 33.736 V 4.7941 h -3.3141 v 1.59204 z m -0.6845,6.49476 c -0.4503,0.5609 -1.0807,0.8503 -1.9092,0.8503 -0.8466,0 -1.495,-0.2713 -1.9453,-0.8322 -0.4503,-0.5608 -0.6845,-1.3749 -0.6845,-2.4242 0,-1.0674 0.2342,-1.88151 0.7025,-2.47853 0.4683,-0.59701 1.1167,-0.88647 1.9273,-0.88647 0.8105,0 1.4589,0.28946 1.9092,0.86838 0.4503,0.57892 0.6845,1.39304 0.6845,2.47852 0,1.0493 -0.2342,1.8634 -0.6845,2.4242 z"
       id="path8"
       inkscape:connector-curvature="0"
       style="fill:#202945" />
    <path
       d="M 48.5791,1.03113 45.2109,2.1347 v 2.65943 2.53279 4.46858 c 0,1.4111 0.3603,2.5328 1.0988,3.3288 0.7384,0.796 1.8011,1.194 3.188,1.194 0.3603,0 0.6845,-0.0181 1.0087,-0.0723 0.3062,-0.0362 0.6304,-0.1267 0.9366,-0.2533 v -2.5871 c -0.2161,0.0362 -0.4143,0.0724 -0.5944,0.1086 -0.1621,0.0181 -0.3422,0.0361 -0.5223,0.0361 -0.3062,0 -0.5944,-0.0542 -0.8646,-0.1628 C 49.1915,13.279 48.9754,13.08 48.8133,12.8086 48.6512,12.5372 48.5611,12.1754 48.5611,11.7412 V 7.30883 H 51.443 V 4.77604 H 48.5611 V 1.03113 Z"
       id="path10"
       inkscape:connector-curvature="0"
       style="fill:#202945" />
    <path
       d="M 62.6645,5.24638 C 61.908,4.73983 61.0435,4.50464 60.0708,4.50464 c -0.9186,0 -1.7291,0.2171 -2.4136,0.66938 -0.6124,0.39801 -1.0266,0.92266 -1.2788,1.55586 L 56.1623,4.7941 h -3.1701 c 0.072,0.54274 0.1261,1.08548 0.1441,1.62822 0.018,0.54274 0.036,1.08549 0.036,1.62823 V 21.1668 h 3.3682 V 14.473 c 0.2702,0.4884 0.6304,0.8865 1.1167,1.194 0.6845,0.4342 1.495,0.6513 2.4136,0.6513 0.9727,0 1.8372,-0.2352 2.5937,-0.7237 0.7565,-0.4703 1.3329,-1.1578 1.7652,-2.0443 0.4322,-0.8865 0.6484,-1.9177 0.6484,-3.0936 0,-1.17594 -0.2162,-2.22524 -0.6484,-3.12981 C 63.9974,6.44041 63.421,5.75294 62.6645,5.24638 Z M 61.0254,12.899 c -0.4503,0.5609 -1.0807,0.8322 -1.9092,0.8322 -0.8466,0 -1.495,-0.2894 -1.9453,-0.8503 -0.4503,-0.5608 -0.6664,-1.393 -0.6664,-2.4604 0,-1.06738 0.2161,-1.89958 0.6664,-2.4785 0.4503,-0.57893 1.0987,-0.86839 1.9453,-0.86839 0.8105,0 1.4589,0.30756 1.9092,0.88648 0.4503,0.59701 0.6845,1.42922 0.6845,2.47851 -0.018,1.0855 -0.2342,1.8996 -0.6845,2.4604 z"
       id="path12"
       inkscape:connector-curvature="0"
       style="fill:#202945" />
    <path
       d="M 74.747,6.38614 C 74.4768,5.89767 74.0986,5.49966 73.5943,5.17402 72.8918,4.72174 72.0993,4.50464 71.1807,4.50464 c -0.9727,0 -1.8372,0.25328 -2.5937,0.74174 -0.7565,0.50656 -1.3329,1.19403 -1.7652,2.0986 -0.4323,0.90457 -0.6304,1.93578 -0.6304,3.12982 0,1.1759 0.2161,2.2071 0.6304,3.0936 0.4143,0.8865 1.0087,1.5559 1.7652,2.0443 0.7565,0.4704 1.621,0.7237 2.6117,0.7237 0.9006,0 1.7111,-0.2171 2.4136,-0.6513 0.5043,-0.3076 0.8825,-0.7237 1.1527,-1.2121 v 1.6825 h 3.3142 V 4.7941 H 74.747 Z m -0.6664,6.49476 c -0.4503,0.5609 -1.0807,0.8503 -1.9093,0.8503 -0.8465,0 -1.495,-0.2713 -1.9453,-0.8322 -0.4502,-0.5608 -0.6844,-1.3749 -0.6844,-2.4242 0,-1.04931 0.2342,-1.88151 0.7025,-2.47853 0.4683,-0.59701 1.1167,-0.88647 1.9272,-0.88647 0.8106,0 1.459,0.28946 1.9093,0.86838 0.4503,0.57892 0.6844,1.39304 0.6844,2.47852 -0.018,1.0493 -0.2341,1.8634 -0.6844,2.4242 z"
       id="path14"
       inkscape:connector-curvature="0"
       style="fill:#202945" />
    <path
       d="M 88.3488,6.40423 C 88.0786,5.91577 87.6823,5.51776 87.178,5.19211 86.4755,4.73983 85.665,4.50464 84.7464,4.50464 c -0.9726,0 -1.8552,0.23519 -2.6117,0.72365 -0.7565,0.47038 -1.3509,1.13976 -1.7832,1.97196 -0.4322,0.8503 -0.6484,1.82723 -0.6484,2.96695 0,1.1398 0.2162,2.1348 0.6484,2.9851 0.4323,0.8503 1.0267,1.5016 1.7832,1.972 0.7565,0.4703 1.6211,0.7055 2.6117,0.7055 0.6124,0 1.1708,-0.1085 1.7111,-0.3437 0.5224,-0.2352 0.9727,-0.5247 1.3509,-0.9046 0.2162,-0.2171 0.3963,-0.4523 0.5584,-0.6874 v 1.99 c 0,0.9227 -0.2342,1.6101 -0.7205,2.0624 -0.4683,0.4523 -1.1888,0.6694 -2.1614,0.6694 -0.6664,0 -1.3509,-0.0905 -2.0353,-0.2533 -0.6845,-0.1628 -1.3509,-0.4161 -2.0354,-0.7598 l -0.5043,2.5147 c 1.3329,0.7055 2.8999,1.0493 4.6831,1.0493 1.9993,0 3.5303,-0.4704 4.5569,-1.4111 1.0267,-0.9408 1.5491,-2.3157 1.5491,-4.143 V 4.7941 h -3.3502 z m -0.7025,6.02447 c -0.4683,0.5427 -1.1167,0.8141 -1.9272,0.8141 -0.8106,0 -1.459,-0.2714 -1.9453,-0.8322 -0.4863,-0.5428 -0.7205,-1.3026 -0.7205,-2.2615 0,-0.9588 0.2342,-1.70054 0.7205,-2.24328 0.4683,-0.54275 1.1347,-0.81412 1.9633,-0.81412 0.8285,0 1.4769,0.27137 1.9452,0.83221 0.4683,0.54274 0.6845,1.30258 0.6845,2.24329 -0.018,0.9589 -0.2522,1.7187 -0.7205,2.2615 z"
       id="path16"
       inkscape:connector-curvature="0"
       style="fill:#202945" />
    <path
       d="m 40.6526,5.30076 c -0.4683,0.36182 -0.8105,0.85029 -1.0447,1.4473 L 39.3738,4.77611 h -3.1701 c 0.072,0.54274 0.1261,1.08548 0.1441,1.62822 0.018,0.54274 0.036,1.08548 0.036,1.62822 v 8.10495 h 3.3682 v -5.934 c 0,-0.56082 0.1081,-1.04929 0.3242,-1.46539 0.2162,-0.4161 0.5224,-0.72365 0.9186,-0.95884 0.3963,-0.21709 0.9006,-0.34373 1.495,-0.34373 0.3602,0 0.7205,0.05427 1.0807,0.16282 V 4.5771 C 43.3904,4.54092 43.1922,4.52283 42.9581,4.52283 c -0.8646,0 -1.6391,0.25328 -2.3055,0.77793 z"
       id="path18"
       inkscape:connector-curvature="0"
       style="fill:#202945" />
    <path
       d="M 104,10.2035 C 104,9.02755 103.784,8.01444 103.37,7.14605 102.955,6.27767 102.361,5.62638 101.586,5.156 100.812,4.68563 99.8933,4.45044 98.8487,4.45044 c -1.0988,0 -2.0534,0.25328 -2.8819,0.74175 -0.8286,0.50655 -1.477,1.19403 -1.9453,2.09859 -0.4683,0.88648 -0.7205,1.91769 -0.7205,3.09362 0,1.2121 0.2522,2.2614 0.7385,3.1298 0.4863,0.8865 1.1888,1.5559 2.1074,2.0443 0.9186,0.4704 1.9993,0.7237 3.2601,0.7237 0.811,0 1.603,-0.1266 2.378,-0.3618 0.792,-0.2533 1.459,-0.579 1.999,-1.0132 l -0.883,-2.2795 c -0.486,0.3619 -1.026,0.6332 -1.603,0.8322 -0.576,0.199 -1.171,0.2895 -1.7649,0.2895 -1.0267,0 -1.7832,-0.2895 -2.2875,-0.8503 -0.3242,-0.3799 -0.5403,-0.9046 -0.6484,-1.5739 h 7.3668 z M 96.5972,9.02755 c 0.1081,-0.56083 0.2882,-0.99502 0.5403,-1.35685 0.4323,-0.56083 1.0267,-0.8322 1.8012,-0.8322 0.7205,0 1.2613,0.23519 1.6393,0.72365 0.288,0.36183 0.45,0.8503 0.522,1.4654 z"
       id="path20"
       inkscape:connector-curvature="0"
       style="fill:#202945" />
  </g>
  <defs
     id="defs27">
    <clipPath
       id="clip0">
      <rect
         width="104"
         height="23.2836"
         id="rect24"
         x="0"
         y="0"
         style="fill:#ffffff" />
    </clipPath>
  </defs>
</svg>
